<?xml version="1.0" standalone="no"?>
<!DOCTYPE svg PUBLIC "-//W3C//DTD SVG 20010904//EN"
 "http://www.w3.org/TR/2001/REC-SVG-20010904/DTD/svg10.dtd">
<svg version="1.0" xmlns="http://www.w3.org/2000/svg"
 width="1080.000000pt" height="1080.000000pt" viewBox="0 0 1080.000000 1080.000000"
 preserveAspectRatio="xMidYMid meet">
<metadata>
Created by potrace 1.14, written by Peter Selinger 2001-2017
</metadata>
<g transform="translate(0.000000,1080.000000) scale(0.100000,-0.100000)"
fill="#000000" stroke="none">
<path d="M5120 10797 c-3 -3 -57 -7 -120 -11 -486 -26 -1134 -176 -1615 -374
-186 -76 -199 -82 -364 -164 -448 -222 -788 -447 -1171 -779 -139 -120 -410
-390 -515 -514 -33 -38 -66 -76 -73 -84 -57 -60 -251 -320 -349 -466 -115
-172 -141 -214 -225 -365 -367 -657 -578 -1323 -663 -2095 -32 -284 -32 -760
-1 -1080 95 -973 460 -1909 1052 -2700 296 -396 688 -786 1099 -1097 638 -482
1472 -845 2255 -983 126 -22 282 -45 342 -51 40 -3 76 -8 79 -10 31 -18 718
-26 939 -11 172 11 345 32 525 62 386 66 897 216 1190 350 17 7 77 34 135 60
744 328 1490 917 2020 1596 118 150 337 475 419 619 366 644 586 1299 680
2021 29 221 36 356 36 679 0 254 -7 439 -20 548 -40 319 -64 464 -116 687
-145 621 -403 1216 -762 1755 -816 1225 -2089 2062 -3532 2324 -110 20 -256
43 -325 51 -69 7 -147 16 -175 20 -60 6 -739 18 -745 12z"/>
</g>
</svg>
